<svg width="217" height="218" viewBox="0 0 217 218" fill="none" xmlns="http://www.w3.org/2000/svg">
<path d="M108.44 216.88C168.33 216.88 216.88 168.33 216.88 108.44C216.88 48.5502 168.33 0 108.44 0C48.5502 0 0 48.5502 0 108.44C0 168.33 48.5502 216.88 108.44 216.88Z" fill="#D5933C"/>
<path d="M23.78 176.21L105.51 175.94V162.27H117.58V176.12L162.58 175.9L162.62 69.16H152.03L142.62 61.53L162.84 61.46C162.85 61.92 162.84 39.46 162.84 39.46L126.7 60.3L120.48 56.08L167.44 27.98L203.22 61.68L215.59 61.83L215.52 68.94L209.08 69.09L209.15 76.72L186.93 76.79L186.78 68.86C186.79 69.23 170.19 68.79 170.19 68.79L170.12 175.9L193.49 175.74C173.23 201.68 144.93 216.64 113.08 217.08C85.49 217.48 52.37 211.18 23.78 176.21Z" fill="#192829"/>
<path d="M54.0901 186.76L163.73 186.65C152.21 197.49 135.72 206.62 108.97 207.29C91.6601 207.71 66.4501 200.05 54.0901 186.76Z" fill="#D09337"/>
<path d="M105.28 162.28H117.58V176.13H141.28L141.32 75.05L130.84 81.54L130.54 138.83L105.28 154.57V162.28Z" fill="#955215"/>
<path d="M91.28 175.98L105.51 175.94V154.76L130.84 138.65V62.91L91.28 36.98V175.98Z" fill="white"/>
<path d="M105.63 75.51H97.4099V86.07H105.63V75.51Z" fill="#1C2A2D"/>
<path d="M120.41 75.51H112.19V86.07H120.41V75.51Z" fill="#1C2A2D"/>
<path d="M105.63 100.07H97.4099V110.63H105.63V100.07Z" fill="#1C2A2D"/>
<path d="M120.41 100.07H112.19V110.63H120.41V100.07Z" fill="#1C2A2D"/>
<path d="M120.41 124.62H112.19V135.18H120.41V124.62Z" fill="#1C2A2D"/>
<path d="M105.63 124.62H97.4099V135.18H105.63V124.62Z" fill="#1C2A2D"/>
<path d="M78.8201 57.81L91.2801 47.36V65.09L78.8201 72.18V57.81Z" fill="#9B5516"/>
<path d="M81.21 146.78V176.01L91.28 175.94V153.74L81.21 146.78Z" fill="#9B5516"/>
<path d="M54.8501 128.86V176.08H81.1901V147.05L54.8501 128.86Z" fill="#D4903B"/>
<path d="M54.88 128.59L54.85 176.08L28.71 176.16V145.93L54.88 128.59Z" fill="#FCFDFB"/>
<path d="M45.45 111.04C60.5882 111.04 72.86 99.0995 72.86 84.37C72.86 69.6406 60.5882 57.7 45.45 57.7C30.3119 57.7 18.04 69.6406 18.04 84.37C18.04 99.0995 30.3119 111.04 45.45 111.04Z" fill="#9E5616"/>
<path d="M49.03 108.66C62.2849 108.66 73.03 97.2925 73.03 83.27C73.03 69.2475 62.2849 57.88 49.03 57.88C35.7752 57.88 25.03 69.2475 25.03 83.27C25.03 97.2925 35.7752 108.66 49.03 108.66Z" fill="white"/>
<path d="M71.3599 93.85C69.6599 98.37 64.6899 102.78 59.8799 105.81C56.6299 107.86 51.7699 110.87 44.3599 111.01L44.1999 135.66L54.8799 128.58L91.2899 153.73V78.85H16.1799L16.3299 86.18L84.9199 86.4L71.3599 93.85Z" fill="#1A2930"/>
<path d="M25.1799 86.21L57.0199 86.38V107.49C56.1999 107.8 44.3399 111.87 34.1299 103.17C25.0299 95.43 25.3299 87.72 25.1799 86.21Z" fill="#D5933C"/>
<path d="M44.33 113.15C45.64 113.38 47.81 113.6 50.44 112.99C52.72 112.47 54.43 111.53 55.48 110.84C55.48 112.96 55.48 115.09 55.48 117.21L44.29 123.65L44.33 113.15Z" fill="#9B5516"/>
<path d="M68.6001 107.24L81.2101 101.07V125.68L68.6001 124.24V107.24Z" fill="#9B5516"/>
<path d="M49.68 151.37H41.21V161.81H49.68V151.37Z" fill="#192829"/>
<path d="M68.5999 151.37H60.1299V161.81H68.5999V151.37Z" fill="#192829"/>
<path d="M78.8201 72.18C79.0401 72.11 91.2801 65.09 91.2801 65.09V78.85H78.8201V72.18Z" fill="#8B4B14"/>
<path d="M141.33 75.12L162.61 90.09L162.58 175.91L141.33 176.01V75.12Z" fill="white"/>
<path d="M170.24 95.62L188.61 108.37V175.78L170.1 175.91L170.24 95.62Z" fill="white"/>
<path d="M200.41 69.01H194.08V75.34H200.41V69.01Z" fill="white"/>
<path d="M157.37 98.74H148.93V108.52H157.37V98.74Z" fill="#D5933C"/>
<path d="M157.37 125.74H148.93V135.52H157.37V125.74Z" fill="#D5933C"/>
<path d="M157.37 153.31H148.93V163.09H157.37V153.31Z" fill="#D5933C"/>
<path d="M183.57 125.74H175.13V135.52H183.57V125.74Z" fill="#D5933C"/>
<path d="M183.57 153.31H175.13V163.09H183.57V153.31Z" fill="#D5933C"/>
<path d="M170.1 39.34V61.6H193.21L170.1 39.34Z" fill="#D39439"/>
</svg>
