<svg width="274" height="90" viewBox="0 0 274 90" fill="none" xmlns="http://www.w3.org/2000/svg">
<g clip-path="url(#clip0_93_2)">
<path d="M56.1536 71.2098C57.9182 71.2098 57.9182 70.3098 56.1536 70.3098C54.3946 70.3098 54.3891 71.2098 56.1536 71.2098Z" fill="white"/>
<path d="M67.1136 75.6108C68.8782 75.6108 68.8782 74.7108 67.1136 74.7108C65.3545 74.7108 65.349 75.6108 67.1136 75.6108Z" fill="white"/>
<path d="M274 0.0396118H0V90.0396H274V0.0396118Z" fill="#FFFBF0"/>
</g>
<path d="M46.9599 84.9199C69.0292 84.9199 86.9199 67.0292 86.9199 44.96C86.9199 22.8907 69.0292 5 46.9599 5C24.8907 5 7 22.8907 7 44.96C7 67.0292 24.8907 84.9199 46.9599 84.9199Z" fill="#D5933C"/>
<path d="M15.7625 69.933L45.8798 69.8336V64.7962H50.3276V69.8999L66.91 69.8188L66.9247 30.4853H63.0224L59.5548 27.6737L67.0058 27.6479C67.0095 27.8174 67.0058 19.5409 67.0058 19.5409L53.6883 27.2204L51.3962 25.6653L68.7009 15.3105L81.8858 27.7289L86.4441 27.7842L86.4183 30.4042L84.0452 30.4595L84.071 33.2712L75.8829 33.297L75.8277 30.3748C75.8313 30.5111 69.7143 30.349 69.7143 30.349L69.6885 69.8188L78.3003 69.7599C70.8345 79.3187 60.406 84.8314 48.6693 84.9936C38.5025 85.141 26.2978 82.8194 15.7625 69.933Z" fill="#192829"/>
<path d="M26.9316 73.8207L67.3338 73.7802C63.0887 77.7747 57.0122 81.1391 47.1548 81.386C40.7761 81.5407 31.4863 78.7181 26.9316 73.8207Z" fill="#D09337"/>
<path d="M45.7961 64.7999H50.3287V69.9036H59.0621L59.0768 32.6558L55.215 35.0473L55.1044 56.1586L45.7961 61.9587V64.7999Z" fill="#955215"/>
<path d="M40.6367 69.8483L45.8805 69.8336V62.0288L55.2145 56.0923V28.1822L40.6367 18.627V69.8483Z" fill="white"/>
<path d="M45.9243 32.8253H42.8953V36.7166H45.9243V32.8253Z" fill="#1C2A2D"/>
<path d="M51.3709 32.8253H48.3418V36.7166H51.3709V32.8253Z" fill="#1C2A2D"/>
<path d="M45.9243 41.8756H42.8953V45.7669H45.9243V41.8756Z" fill="#1C2A2D"/>
<path d="M51.3709 41.8756H48.3418V45.7669H51.3709V41.8756Z" fill="#1C2A2D"/>
<path d="M51.3709 50.9223H48.3418V54.8136H51.3709V50.9223Z" fill="#1C2A2D"/>
<path d="M45.9243 50.9223H42.8953V54.8136H45.9243V50.9223Z" fill="#1C2A2D"/>
<path d="M36.0449 26.3029L40.6364 22.4521V28.9855L36.0449 31.5982V26.3029Z" fill="#9B5516"/>
<path d="M36.9258 59.0881V69.8593L40.6366 69.8335V61.6529L36.9258 59.0881Z" fill="#9B5516"/>
<path d="M27.2117 52.4846V69.8851H36.9179V59.1876L27.2117 52.4846Z" fill="#D4903B"/>
<path d="M27.2225 52.3852L27.2114 69.8851L17.5789 69.9146V58.7749L27.2225 52.3852Z" fill="#FCFDFB"/>
<path d="M23.7482 45.918C29.3266 45.918 33.8488 41.5179 33.8488 36.0902C33.8488 30.6624 29.3266 26.2623 23.7482 26.2623C18.1699 26.2623 13.6477 30.6624 13.6477 36.0902C13.6477 41.5179 18.1699 45.918 23.7482 45.918Z" fill="#9E5616"/>
<path d="M25.0673 45.041C29.9517 45.041 33.9113 40.8521 33.9113 35.6849C33.9113 30.5176 29.9517 26.3287 25.0673 26.3287C20.183 26.3287 16.2234 30.5176 16.2234 35.6849C16.2234 40.8521 20.183 45.041 25.0673 45.041Z" fill="white"/>
<path d="M33.2954 39.5835C32.669 41.2491 30.8375 42.8742 29.065 43.9908C27.8674 44.7462 26.0765 45.8554 23.3459 45.907L23.287 54.9904L27.2226 52.3815L40.6396 61.6492V34.0561H12.9617L13.0169 36.7572L38.2922 36.8382L33.2954 39.5835Z" fill="#1A2930"/>
<path d="M16.2781 36.7682L28.0111 36.8308V44.6098C27.7089 44.724 23.3385 46.2238 19.5761 43.0179C16.2228 40.1657 16.3334 37.3246 16.2781 36.7682Z" fill="#D5933C"/>
<path d="M23.335 46.6956C23.8178 46.7803 24.6174 46.8614 25.5866 46.6366C26.4268 46.445 27.0569 46.0986 27.4438 45.8443C27.4438 46.6255 27.4438 47.4105 27.4438 48.1917L23.3203 50.5648L23.335 46.6956Z" fill="#9B5516"/>
<path d="M32.2793 44.5178L36.9261 42.2441V51.3129L32.2793 50.7822V44.5178Z" fill="#9B5516"/>
<path d="M25.3067 60.7795H22.1855V64.6267H25.3067V60.7795Z" fill="#192829"/>
<path d="M32.2794 60.7795H29.1582V64.6267H32.2794V60.7795Z" fill="#192829"/>
<path d="M36.0449 31.5983C36.126 31.5725 40.6364 28.9856 40.6364 28.9856V34.0561H36.0449V31.5983Z" fill="#8B4B14"/>
<path d="M59.0801 32.6816L66.9217 38.1981L66.9107 69.8226L59.0801 69.8594V32.6816Z" fill="white"/>
<path d="M69.7332 40.2358L76.5025 44.9342V69.7747L69.6816 69.8226L69.7332 40.2358Z" fill="white"/>
<path d="M80.8514 30.4301H78.5188V32.7627H80.8514V30.4301Z" fill="white"/>
<path d="M64.991 41.3855H61.8809V44.9894H64.991V41.3855Z" fill="#D5933C"/>
<path d="M64.991 51.335H61.8809V54.9389H64.991V51.335Z" fill="#D5933C"/>
<path d="M64.991 61.4945H61.8809V65.0984H64.991V61.4945Z" fill="#D5933C"/>
<path d="M74.6453 51.335H71.5352V54.9389H74.6453V51.335Z" fill="#D5933C"/>
<path d="M74.6453 61.4945H71.5352V65.0984H74.6453V61.4945Z" fill="#D5933C"/>
<path d="M69.6816 19.4967V27.6994H78.1976L69.6816 19.4967Z" fill="#D39439"/>
<path d="M102.203 46.5117H97.8203L97.7969 44.0977H101.477C102.125 44.0977 102.656 44.0156 103.07 43.8516C103.484 43.6797 103.793 43.4336 103.996 43.1133C104.207 42.7852 104.312 42.3867 104.312 41.918C104.312 41.3867 104.211 40.957 104.008 40.6289C103.812 40.3008 103.504 40.0625 103.082 39.9141C102.668 39.7656 102.133 39.6914 101.477 39.6914H99.0391V54H95.5234V36.9375H101.477C102.469 36.9375 103.355 37.0312 104.137 37.2188C104.926 37.4062 105.594 37.6914 106.141 38.0742C106.688 38.457 107.105 38.9414 107.395 39.5273C107.684 40.1055 107.828 40.793 107.828 41.5898C107.828 42.293 107.668 42.9414 107.348 43.5352C107.035 44.1289 106.539 44.6133 105.859 44.9883C105.188 45.3633 104.309 45.5703 103.223 45.6094L102.203 46.5117ZM102.051 54H96.8594L98.2305 51.2578H102.051C102.668 51.2578 103.172 51.1602 103.562 50.9648C103.953 50.7617 104.242 50.4883 104.43 50.1445C104.617 49.8008 104.711 49.4062 104.711 48.9609C104.711 48.4609 104.625 48.0273 104.453 47.6602C104.289 47.293 104.023 47.0117 103.656 46.8164C103.289 46.6133 102.805 46.5117 102.203 46.5117H98.8164L98.8398 44.0977H103.059L103.867 45.0469C104.906 45.0312 105.742 45.2148 106.375 45.5977C107.016 45.9727 107.48 46.4609 107.77 47.0625C108.066 47.6641 108.215 48.3086 108.215 48.9961C108.215 50.0898 107.977 51.0117 107.5 51.7617C107.023 52.5039 106.324 53.0625 105.402 53.4375C104.488 53.8125 103.371 54 102.051 54ZM120.273 36.9375H123.777V48.2109C123.777 49.5234 123.496 50.6289 122.934 51.5273C122.379 52.4258 121.609 53.1016 120.625 53.5547C119.648 54.0078 118.523 54.2344 117.25 54.2344C115.977 54.2344 114.844 54.0078 113.852 53.5547C112.867 53.1016 112.094 52.4258 111.531 51.5273C110.977 50.6289 110.699 49.5234 110.699 48.2109V36.9375H114.215V48.2109C114.215 48.9766 114.336 49.6016 114.578 50.0859C114.82 50.5703 115.168 50.9258 115.621 51.1523C116.082 51.3789 116.625 51.4922 117.25 51.4922C117.891 51.4922 118.434 51.3789 118.879 51.1523C119.332 50.9258 119.676 50.5703 119.91 50.0859C120.152 49.6016 120.273 48.9766 120.273 48.2109V36.9375ZM130.41 36.9375V54H126.906V36.9375H130.41ZM144.672 51.2578V54H136.082V51.2578H144.672ZM137.219 36.9375V54H133.703V36.9375H137.219ZM151.926 54H148.211L148.234 51.2578H151.926C152.848 51.2578 153.625 51.0508 154.258 50.6367C154.891 50.2148 155.367 49.6016 155.688 48.7969C156.016 47.9922 156.18 47.0195 156.18 45.8789V45.0469C156.18 44.1719 156.086 43.4023 155.898 42.7383C155.719 42.0742 155.449 41.5156 155.09 41.0625C154.73 40.6094 154.289 40.2695 153.766 40.043C153.242 39.8086 152.641 39.6914 151.961 39.6914H148.141V36.9375H151.961C153.102 36.9375 154.145 37.1328 155.09 37.5234C156.043 37.9062 156.867 38.457 157.562 39.1758C158.258 39.8945 158.793 40.7539 159.168 41.7539C159.551 42.7461 159.742 43.8516 159.742 45.0703V45.8789C159.742 47.0898 159.551 48.1953 159.168 49.1953C158.793 50.1953 158.258 51.0547 157.562 51.7734C156.875 52.4844 156.051 53.0352 155.09 53.4258C154.137 53.8086 153.082 54 151.926 54ZM150.203 36.9375V54H146.688V36.9375H150.203ZM177.156 49.5352C177.156 49.2305 177.109 48.957 177.016 48.7148C176.93 48.4648 176.766 48.2383 176.523 48.0352C176.281 47.8242 175.941 47.6172 175.504 47.4141C175.066 47.2109 174.5 47 173.805 46.7812C173.031 46.5312 172.297 46.25 171.602 45.9375C170.914 45.625 170.305 45.2617 169.773 44.8477C169.25 44.4258 168.836 43.9375 168.531 43.3828C168.234 42.8281 168.086 42.1836 168.086 41.4492C168.086 40.7383 168.242 40.0938 168.555 39.5156C168.867 38.9297 169.305 38.4297 169.867 38.0156C170.43 37.5938 171.094 37.2695 171.859 37.043C172.633 36.8164 173.48 36.7031 174.402 36.7031C175.66 36.7031 176.758 36.9297 177.695 37.3828C178.633 37.8359 179.359 38.457 179.875 39.2461C180.398 40.0352 180.66 40.9375 180.66 41.9531H177.168C177.168 41.4531 177.062 41.0156 176.852 40.6406C176.648 40.2578 176.336 39.957 175.914 39.7383C175.5 39.5195 174.977 39.4102 174.344 39.4102C173.734 39.4102 173.227 39.5039 172.82 39.6914C172.414 39.8711 172.109 40.1172 171.906 40.4297C171.703 40.7344 171.602 41.0781 171.602 41.4609C171.602 41.75 171.672 42.0117 171.812 42.2461C171.961 42.4805 172.18 42.6992 172.469 42.9023C172.758 43.1055 173.113 43.2969 173.535 43.4766C173.957 43.6562 174.445 43.832 175 44.0039C175.93 44.2852 176.746 44.6016 177.449 44.9531C178.16 45.3047 178.754 45.6992 179.23 46.1367C179.707 46.5742 180.066 47.0703 180.309 47.625C180.551 48.1797 180.672 48.8086 180.672 49.5117C180.672 50.2539 180.527 50.918 180.238 51.5039C179.949 52.0898 179.531 52.5859 178.984 52.9922C178.438 53.3984 177.785 53.707 177.027 53.918C176.27 54.1289 175.422 54.2344 174.484 54.2344C173.641 54.2344 172.809 54.125 171.988 53.9062C171.168 53.6797 170.422 53.3398 169.75 52.8867C169.086 52.4336 168.555 51.8555 168.156 51.1523C167.758 50.4492 167.559 49.6172 167.559 48.6562H171.086C171.086 49.1875 171.168 49.6367 171.332 50.0039C171.496 50.3711 171.727 50.668 172.023 50.8945C172.328 51.1211 172.688 51.2852 173.102 51.3867C173.523 51.4883 173.984 51.5391 174.484 51.5391C175.094 51.5391 175.594 51.4531 175.984 51.2812C176.383 51.1094 176.676 50.8711 176.863 50.5664C177.059 50.2617 177.156 49.918 177.156 49.5352ZM189.707 47.918H185.359V45.1758H189.707C190.379 45.1758 190.926 45.0664 191.348 44.8477C191.77 44.6211 192.078 44.3086 192.273 43.9102C192.469 43.5117 192.566 43.0625 192.566 42.5625C192.566 42.0547 192.469 41.582 192.273 41.1445C192.078 40.707 191.77 40.3555 191.348 40.0898C190.926 39.8242 190.379 39.6914 189.707 39.6914H186.578V54H183.062V36.9375H189.707C191.043 36.9375 192.188 37.1797 193.141 37.6641C194.102 38.1406 194.836 38.8008 195.344 39.6445C195.852 40.4883 196.105 41.4531 196.105 42.5391C196.105 43.6406 195.852 44.5938 195.344 45.3984C194.836 46.2031 194.102 46.8242 193.141 47.2617C192.188 47.6992 191.043 47.918 189.707 47.918ZM209.91 43.8867V46.6289H201.004V43.8867H209.91ZM202.047 36.9375V54H198.531V36.9375H202.047ZM212.418 36.9375V54H208.914V36.9375H212.418ZM226.926 51.2578V54H217.844V51.2578H226.926ZM218.992 36.9375V54H215.477V36.9375H218.992ZM225.742 43.8867V46.5586H217.844V43.8867H225.742ZM226.914 36.9375V39.6914H217.844V36.9375H226.914ZM228.977 36.9375H235.34C236.645 36.9375 237.766 37.1328 238.703 37.5234C239.648 37.9141 240.375 38.4922 240.883 39.2578C241.391 40.0234 241.645 40.9648 241.645 42.082C241.645 42.9961 241.488 43.7812 241.176 44.4375C240.871 45.0859 240.438 45.6289 239.875 46.0664C239.32 46.4961 238.668 46.8398 237.918 47.0977L236.805 47.6836H231.273L231.25 44.9414H235.363C235.98 44.9414 236.492 44.832 236.898 44.6133C237.305 44.3945 237.609 44.0898 237.812 43.6992C238.023 43.3086 238.129 42.8555 238.129 42.3398C238.129 41.793 238.027 41.3203 237.824 40.9219C237.621 40.5234 237.312 40.2188 236.898 40.0078C236.484 39.7969 235.965 39.6914 235.34 39.6914H232.492V54H228.977V36.9375ZM238.516 54L234.625 46.3945L238.34 46.3711L242.277 53.8359V54H238.516ZM255.801 51.2578V54H246.719V51.2578H255.801ZM247.867 36.9375V54H244.352V36.9375H247.867ZM254.617 43.8867V46.5586H246.719V43.8867H254.617ZM255.789 36.9375V39.6914H246.719V36.9375H255.789Z" fill="#192829"/>
<defs>
<clipPath id="clip0_93_2">
<rect width="274" height="90" rx="20" fill="white"/>
</clipPath>
</defs>
</svg>
